/* XPM */
static char * ulipad_xpm[] = {
"32 32 115 2",
"  	c None",
". 	c #0099CC",
"+ 	c #000B4B",
"@ 	c #03235E",
"# 	c #2B4E83",
"$ 	c #6F95BF",
"% 	c #476C9D",
"& 	c #244B82",
"* 	c #12366E",
"= 	c #244982",
"- 	c #9ED1FA",
"; 	c #90C0EB",
"> 	c #6593C2",
", 	c #567EAD",
"' 	c #89AFD6",
") 	c #88B5DD",
"! 	c #A8D9FC",
"~ 	c #AFE0FD",
"{ 	c #4A74A6",
"] 	c #A5DBFD",
"^ 	c #89C0F1",
"/ 	c #9FD3FE",
"( 	c #7BA9D5",
"_ 	c #779FC8",
": 	c #90B7DE",
"< 	c #96C4EB",
"[ 	c #ABE0FE",
"} 	c #97CDFA",
"| 	c #84BBEF",
"1 	c #4872A5",
"2 	c #2F5389",
"3 	c #8FC4F3",
"4 	c #91C8F8",
"5 	c #79A2CC",
"6 	c #81B9EE",
"7 	c #98D1FE",
"8 	c #042E6A",
"9 	c #79B1E8",
"0 	c #6F9AC7",
"a 	c #A0D5FA",
"b 	c #97CAF3",
"c 	c #0D336C",
"d 	c #BCEFFB",
"e 	c #B3E7FE",
"f 	c #C2F3FC",
"g 	c #5D83B1",
"h 	c #32568B",
"i 	c #71ABE4",
"j 	c #6CA7E0",
"k 	c #C8FAFF",
"l 	c #839DA5",
"m 	c #879C98",
"n 	c #AEDCFE",
"o 	c #A4D9FE",
"p 	c #1C4078",
"q 	c #375C8F",
"r 	c #65776E",
"s 	c #5C6852",
"t 	c #C4EAFF",
"u 	c #C3F7FE",
"v 	c #C5F5FB",
"w 	c #5F746E",
"x 	c #3F5042",
"y 	c #B0D7F8",
"z 	c #385D92",
"A 	c #78B3DA",
"B 	c #4F6660",
"C 	c #68A7CF",
"D 	c #B6EBFF",
"E 	c #032762",
"F 	c #93CDF4",
"G 	c #549BCD",
"H 	c #4993C6",
"I 	c #46574A",
"J 	c #5796BF",
"K 	c #61A6D7",
"L 	c #98D1F6",
"M 	c #729EC9",
"N 	c #82C2ED",
"O 	c #589FD0",
"P 	c #5099CD",
"Q 	c #5E9EC5",
"R 	c #5EA2CE",
"S 	c #90C9F0",
"T 	c #5276A6",
"U 	c #78B7E1",
"V 	c #67A8D5",
"W 	c #80BEE7",
"X 	c #4C645C",
"Y 	c #87BEE8",
"Z 	c #7ABAE6",
"` 	c #70ACD9",
" .	c #6DB0DE",
"..	c #495B4F",
"+.	c #69ACDC",
"@.	c #163B73",
"#.	c #80BBE6",
"$.	c #88C9F4",
"%.	c #26558D",
"&.	c #041C5B",
"*.	c #3E70A6",
"=.	c #556C66",
"-.	c #4C6055",
";.	c #4D82B4",
">.	c #001050",
",.	c #7E908A",
"'.	c #6F8178",
").	c #2F6198",
"!.	c #9DB5B0",
"~.	c #97ACA6",
"{.	c #1C4C85",
"].	c #23467D",
"^.	c #7EA3CD",
"/.	c #33659C",
"(.	c #406396",
"                                                                ",
"                                                                ",
"                                                                ",
"                                                                ",
"                                                                ",
"                        .             .                         ",
"    + @ # $           . # .         . # .           % & * +     ",
"  = = - ; > , '         .             .         $ , ) ! ~ & #   ",
"  # { ] ^ / / ( _         .         .       : _ < [ } | / 1 2   ",
"  % 2 } | 3 ^ 4 4 5 '     .         .     _ ) / ^ ^ 3 6 7 # #   ",
"    8 - 6 3 9 3 ~ ~ ; 0     .     .   : _ a ] ] 4 | ^ 6 b c     ",
"    # 0 7 | 9 9 d d d e 5 :   .   . 0 : f d d d 6 6 6 7 g h     ",
"    2 # / 6 i j ~ f f f k < $ l m $ n k d d f [ j 9 6 o # #     ",
"    p q 7 i ^ [ d d d d d k e r s t u d d d d d [ ^ 9 ] q p     ",
"    2 2 4 4 v v d d d d d v d w x y u d d d d d f f } } & z     ",
"      c } ~ f d d d d d v e A B x C D v d d d d d f e - 8       ",
"      E : D D f f f v D F G H B I J K L d v f f f d D M *       ",
"        h o e D e o N K O P O B I Q P R A S o e D e n           ",
"          T U V V V V U W V G X I Q K Y Z K R V ` W             ",
"             .V U S a S  .O H X ..A +.+.W W  .U W W V h         ",
"        @.N N F F F L S U O O B ..C O A S L S S S #.$.%.        ",
"        &.*.Y o S S S Y U R  .=.-.R R #.F o F S S W ;.E         ",
"        @ * A F F S S #.V H +.w X V G  .^ L L S S W %.>.        ",
"        q p ` U a b S U K H   ,.'.  R K W ; o L Y U ).c         ",
"          &.%.Z S S Y  .V     !.~.    C Z ^ F S N *.>.          ",
"          T 8 V V Z R G 5     '.'.    ' C ` W ` ` {.].          ",
"            q &.c *.8 ,                 ^.8 /.{.&.@.            ",
"                # 2                         (.].                ",
"                                                                ",
"                                                                ",
"                                                                ",
"                                                                "};
